<svg xmlns="http://www.w3.org/2000/svg" width="110.114" height="55.361" viewBox="0 0 110.114 55.361">
  <g id="logo" transform="translate(-899.569 -368.855)">
    <path id="패스_527" data-name="패스 527" d="M917.9,410.014c-.947,1.326-1.841,2.652-2.811,3.92a34.359,34.359,0,0,1-8.294,8.077,12.791,12.791,0,0,1-5.136,2.137,5.329,5.329,0,0,1-1.032.064,1.1,1.1,0,0,1-1.06-1.065,1.082,1.082,0,0,1,.945-1.166c2.987-.2,5.259-1.856,7.42-3.685a42.245,42.245,0,0,0,8.1-9.679,66.971,66.971,0,0,0,4.222-7.719,47.837,47.837,0,0,0,4.383-20.328,53.849,53.849,0,0,0-.835-10.227,1.148,1.148,0,1,1,2.243-.407,56.869,56.869,0,0,1,.835,12.3,54.293,54.293,0,0,1-1.074,9.118c-.036.175-.067.352-.11.583.9-.8,1.685-1.617,2.575-2.3a29.575,29.575,0,0,1,12.9-5.8,9.226,9.226,0,0,1,2.948-.013c2.316.355,3.3,2.22,2.447,4.411a9.865,9.865,0,0,1-2.2,3.318c-4.29,4.38-9.214,7.688-15.389,8.711a51.39,51.39,0,0,1-5.485.44c-.461.026-.7.1-.9.571a30.172,30.172,0,0,0-2.489,12A9.5,9.5,0,0,0,922.007,419a5.9,5.9,0,0,0,8.685,1.444,25.128,25.128,0,0,0,2.18-1.931,3.853,3.853,0,0,1,.445-.415,1.134,1.134,0,0,1,1.414,1.745,12.963,12.963,0,0,1-4.173,3.322,7.74,7.74,0,0,1-6.7.193,9.414,9.414,0,0,1-4.215-3.777,13.048,13.048,0,0,1-1.77-8.283c.032-.392.057-.784.083-1.175C917.956,410.1,917.931,410.07,917.9,410.014Zm5.856-11.556c.347,0,.518,0,.69,0a23.073,23.073,0,0,0,13.1-4.129,25.217,25.217,0,0,0,5.8-5.121,9.02,9.02,0,0,0,1.149-2.034c.26-.633.049-.983-.632-1.077a8.933,8.933,0,0,0-2.2-.032,20.765,20.765,0,0,0-5.625,1.682,23.311,23.311,0,0,0-10.338,7.84C925.065,396.488,924.463,397.421,923.76,398.458Z"/>
    <path id="패스_528" data-name="패스 528" d="M956.791,409.241c1.15,1.289,2.271,2.519,3.353,3.782a1.675,1.675,0,0,1,.349.915.777.777,0,0,1-.336.624.62.62,0,0,1-.774-.256c-.981-1.266-1.98-2.517-2.977-3.771-.174-.219-.367-.424-.581-.668a13.691,13.691,0,0,0-1.2.847,1.055,1.055,0,0,0-.275.618c-.1.7-.163,1.4-.228,2.106a1.761,1.761,0,0,1-1.157,1.624,1.1,1.1,0,0,1-1.64-1.087c0-1.5.037-3.011.145-4.51.119-1.657.362-3.3.495-4.962a8.044,8.044,0,0,0-.114-1.823,1.194,1.194,0,0,1,1.206-1.494,2.053,2.053,0,0,1,2.135,2.065c-.084,1.172-.22,2.339-.344,3.507-.087.82-.194,1.638-.306,2.583.259-.156.418-.238.562-.341,1.355-.963,2.714-1.92,4.055-2.9a1.515,1.515,0,0,1,1.256-.129c.268.043.239.563-.053.774-.584.423-1.184.824-1.775,1.237S957.434,408.788,956.791,409.241Z"/>
    <path id="패스_529" data-name="패스 529" d="M987,414.481c-.5-.1-1.005-.174-1.492-.316a.657.657,0,0,1-.446-.928c.126-.286.473-.321.9-.117a3.222,3.222,0,0,0,3.444-.5,3.309,3.309,0,0,0,1.127-3.978,2.524,2.524,0,0,0-3.212-1.48,3.064,3.064,0,0,0-2.225,2.511c-.232,1.77-.314,3.559-.482,5.338a15.553,15.553,0,0,1-.292,2.044,1.2,1.2,0,0,1-1.442,1.031,1.249,1.249,0,0,1-1.166-1.21,17.982,17.982,0,0,1,.013-2.908c.176-1.7.483-3.382.685-5.077a9.14,9.14,0,0,0-.026-1.773c-.06-.786.174-1.358.725-1.451a5.066,5.066,0,0,1,1.166.021.686.686,0,0,1,.389.145c.565.515,1.153.271,1.8.179a9.368,9.368,0,0,1,2.864-.049,3.015,3.015,0,0,1,2.386,2.507,5.207,5.207,0,0,1-.241,3.415,3.147,3.147,0,0,1-1.264,1.478A6.535,6.535,0,0,1,987,414.481Z"/>
    <path id="패스_530" data-name="패스 530" d="M962.836,411.428a2.435,2.435,0,0,0,1.829,2.279,4.6,4.6,0,0,0,4.7-1.3c.234-.229.768-.358.963-.2a.817.817,0,0,1-.057.994,6.933,6.933,0,0,1-1.4.923,7.713,7.713,0,0,1-5.076.361,3.083,3.083,0,0,1-2.385-2.582,5.273,5.273,0,0,1,2.073-5.478c1.573-1.035,4.452-1.1,5.806,0a2.976,2.976,0,0,1,1.231,2.468,1.972,1.972,0,0,1-.859,1.6,5.6,5.6,0,0,1-2.733.983,10.427,10.427,0,0,1-1.539.092C964.536,411.549,963.689,411.478,962.836,411.428Zm.212-2.46c.9.08,1.823.17,2.744.241a11.308,11.308,0,0,0,1.879.086.962.962,0,0,0,.733-1.652,2.847,2.847,0,0,0-1.236-.941A3.213,3.213,0,0,0,963.048,408.968Z"/>
    <path id="패스_531" data-name="패스 531" d="M972.764,411.352a2.362,2.362,0,0,0,1.218,2.1,4.262,4.262,0,0,0,4.184-.2,5.786,5.786,0,0,0,1.1-.863c.242-.216.875-.373.943-.165a1.262,1.262,0,0,1-.013.913,2.127,2.127,0,0,1-.815.687,6,6,0,0,1-3.109.862,12.275,12.275,0,0,1-2.378-.143,3.365,3.365,0,0,1-2.693-3.354c-.106-2.772,1.173-4.75,3.653-5.377a4.626,4.626,0,0,1,4.788,1.044,2.421,2.421,0,0,1-.781,4.064,8.559,8.559,0,0,1-2.982.654,12.594,12.594,0,0,1-1.6,0C973.773,411.533,973.271,411.427,972.764,411.352Zm.189-2.375c.881.07,1.773.145,2.665.212a12.577,12.577,0,0,0,1.923.107.987.987,0,0,0,.773-1.679,2.553,2.553,0,0,0-2.523-1.047A3.244,3.244,0,0,0,972.953,408.977Z"/>
    <path id="패스_532" data-name="패스 532" d="M994.236,411.4a2.471,2.471,0,0,0,1.849,2.312,4.618,4.618,0,0,0,4.691-1.325c.231-.23.88-.373.938-.166a1.269,1.269,0,0,1-.045.945,2.863,2.863,0,0,1-.992.763,5.848,5.848,0,0,1-3.091.754,15.008,15.008,0,0,1-2.318-.2,3.057,3.057,0,0,1-2.412-2.379,5.323,5.323,0,0,1,2.04-5.7c1.57-1.013,4.416-1.086,5.769,0a2.979,2.979,0,0,1,1.254,2.457,1.991,1.991,0,0,1-.874,1.639,5.486,5.486,0,0,1-2.691.968,14.338,14.338,0,0,1-2.009.094C995.65,411.553,994.957,411.462,994.236,411.4Zm.209-2.424c.893.067,1.773.117,2.65.2a6.066,6.066,0,0,0,2.018.139c.914-.207,1.239-.912.719-1.682a2.255,2.255,0,0,0-1.287-.966A3.274,3.274,0,0,0,994.445,408.978Z"/>
    <path id="패스_533" data-name="패스 533" d="M955.088,382.614a3.69,3.69,0,1,1-3.688-3.687A3.678,3.678,0,0,1,955.088,382.614Zm-2.28.066a1.412,1.412,0,0,0-2.82-.159,1.412,1.412,0,1,0,2.82.159Z"/>
    <path id="패스_534" data-name="패스 534" d="M938.273,411.4c0-1.754.017-3.508-.005-5.262-.016-1.271.808-1.383,1.7-1.208a1.968,1.968,0,0,1,1.482,1.738,8.471,8.471,0,0,1-.238,2.84q-.372,2.18-.734,4.359a1.248,1.248,0,0,1-.934,1.107c-.76.111-1.17-.169-1.256-.949"/>
    <path id="패스_535" data-name="패스 535" d="M1006.072,406.651a2.859,2.859,0,0,1,2.947-.718.791.791,0,0,1,.664.757c0,.229-.041.6-.175.658a1.866,1.866,0,0,1-.8-.019c-.014,0-.028-.013-.041-.022-.938-.581-1.2-.547-1.985.255a3.536,3.536,0,0,0-1.06,2.054c-.166,1.384-.329,2.77-.449,4.159-.079.906-.653,1.363-1.505,1.084a.823.823,0,0,1-.578-.838c.04-1.074.1-2.148.2-3.218.073-.8.247-1.58.309-2.375a2.123,2.123,0,0,0-.2-1.034c-.228-.48-.414-.967-.085-1.413.365-.495.949-.4,1.471-.288A1.82,1.82,0,0,1,1006.072,406.651Z"/>
    <path id="패스_536" data-name="패스 536" d="M940.137,400.636a1.776,1.776,0,0,1,1.691,2.673,1.659,1.659,0,0,1-1.786.7c-1.36-.259-1.8-.989-1.486-2.339A1.451,1.451,0,0,1,940.137,400.636Z"/>
    <path id="패스_537" data-name="패스 537" d="M946.615,406.914c.669.046,1.337.1,2.007.131.418.018.693.172.738.615.055.534-.142.9-.581.983-.742.146-1.488.281-2.238.38a13.086,13.086,0,0,1-1.584.1.766.766,0,0,1-.769-1.164c.291-.666.686-1.158,1.531-1.008"/>
  </g>
</svg>
